<svg width="140" height="17" viewBox="0 0 140 17" fill="none" xmlns="http://www.w3.org/2000/svg">
<g clip-path="url(#clip0)">
<path d="M97.1157 17H96.5835L89.1096 0.224766H92.399L96.8969 10.8515H96.9314L101.423 0.224766H104.608L97.1157 17Z" fill="#231F20"/>
<path d="M29.902 0.222775V2.96133H22.6713V7.09338H29.4283V9.73177H22.6713V13.9342H30.5625V16.672H19.8093V0.222775H29.902Z" fill="#231F20"/>
<path d="M65.3854 0.222775V2.96133H58.1565V7.21197H64.9117V9.84985H58.1565V13.9342H66.0443V16.672H55.293V0.222775H65.3854Z" fill="#231F20"/>
<path d="M119.665 0.222775V2.96133H112.436V7.24578H119.193V9.88391H112.436V13.9342H120.327V16.672H109.573V0.222775H119.665Z" fill="#231F20"/>
<path d="M126.546 16.672V0.222776H131.546C136.549 0.222776 139.111 3.62818 139.111 8.44752C139.111 13.2671 136.549 16.672 131.546 16.672H126.546ZM131.546 13.9741C134.799 13.9741 136.265 12.1428 136.265 8.44752C136.265 4.75196 134.799 2.91137 131.546 2.91137H129.408V13.9741H131.546Z" fill="#231F20"/>
<path d="M48.1011 1.9761L46.7517 4.07379C45.553 3.19828 44.2856 2.69316 42.7346 2.69316C40.5967 2.69316 39.9613 3.60777 39.9613 4.47344C39.9613 7.41409 48.5351 5.70521 48.5351 11.5212C48.5351 14.695 46.0806 16.9006 42.6119 16.9006C40.205 16.9006 38.1294 16.0693 36.4409 13.9486L37.9824 11.9514C39.4007 13.4375 40.8209 14.1896 42.6567 14.1896C44.7907 14.1896 45.8406 13.0451 45.8406 11.7919C45.8406 8.27194 37.0458 10.6457 37.0458 4.6382C37.0458 2.00082 39.4113 1.71661e-05 42.7723 1.71661e-05C44.9372 1.71661e-05 46.9333 0.85181 48.1011 1.9761Z" fill="#231F20"/>
<path d="M6.9218 8.13601H3.7498V2.8557H6.89313C8.69657 2.8557 9.52795 3.84147 9.52795 5.38761C9.52795 7.32257 8.401 8.13601 6.9218 8.13601ZM13.8876 16.6148L13.6377 14.2028C13.4151 14.255 13.1448 14.281 12.8409 14.281C11.6389 14.281 11.0365 13.8702 10.3151 12.6003C10.0475 12.129 9.75624 11.5555 9.50741 11.1057C9.22268 10.6046 9.03707 10.3858 8.75776 10.187C10.8694 9.62185 12.3552 7.88874 12.3552 5.27534C12.3552 2.35209 10.4801 0.224882 6.89313 0.224882H0.889404V16.6721H3.7498V10.6349H5.03617C5.76504 10.6349 6.09584 10.9283 6.40428 11.4589C6.7003 11.9683 7.71142 13.8387 7.71142 13.8387C8.99078 16.1004 10.409 16.8565 12.3143 16.8565C13.0003 16.8565 13.5702 16.7284 13.8876 16.6148Z" fill="#231F20"/>
<path d="M79.1145 8.13601H75.9427V2.8557H79.0862C80.8895 2.8557 81.7204 3.84147 81.7204 5.38761C81.7204 7.32257 80.5937 8.13601 79.1145 8.13601ZM86.0803 16.6148L85.8301 14.2028C85.6075 14.255 85.3377 14.281 85.0333 14.281C83.8312 14.281 83.2292 13.8702 82.5075 12.6003C82.2404 12.129 81.9484 11.5555 81.6996 11.1057C81.4151 10.6046 81.2295 10.3858 80.9504 10.187C83.0619 9.62185 84.5478 7.88874 84.5478 5.27534C84.5478 2.35209 82.673 0.224882 79.0862 0.224882H73.0823V16.6721H75.9427V10.6349H77.2286C77.9577 10.6349 78.2885 10.9283 78.5967 11.4589C78.8932 11.9683 79.9039 13.8387 79.9039 13.8387C81.1832 16.1004 82.6019 16.8565 84.5067 16.8565C85.1925 16.8565 85.7626 16.7284 86.0803 16.6148Z" fill="#231F20"/>
</g>
<defs>
<clipPath id="clip0">
<rect width="138.221" height="17" fill="white" transform="translate(0.889404)"/>
</clipPath>
</defs>
</svg>
