<svg width="180" height="22" viewBox="0 0 180 22" fill="none" xmlns="http://www.w3.org/2000/svg">
<path fill-rule="evenodd" clip-rule="evenodd" d="M83.6037 5.4029C82.8974 4.95913 81.8329 4.74834 80.3705 4.74834C78.3709 4.74834 76.5105 5.22539 75.8141 5.52494C75.7209 5.55288 75.6379 5.613 75.5772 5.69669C75.5164 5.78039 75.481 5.88337 75.4759 5.9909V6.05746L75.6749 7.17799V7.20018C75.7445 7.42206 75.9136 7.53301 76.0728 7.53301L76.1922 7.51082L76.5205 7.42206C77.3959 7.17799 78.7091 6.80078 80.1815 6.80078C81.0768 6.80078 81.6737 6.88954 82.0717 7.07814C82.7283 7.36659 82.7382 7.84365 82.7482 8.63134V9.81843H82.3502C81.624 9.81843 80.2113 9.85172 78.8186 10.1069C76.6896 10.473 74.9387 11.0499 74.9387 14.3671C74.9387 18.5829 78.3908 18.5829 80.0522 18.594C81.1763 18.594 82.211 18.4054 82.8974 18.2501C84.4394 17.8396 84.8373 17.2849 84.8174 15.5431V8.53149C84.8174 7.46644 84.8174 6.13512 83.6037 5.4029ZM82.7581 16.2309C81.8897 16.5374 80.9829 16.6872 80.0721 16.6747V16.7857V16.6747C78.5499 16.6747 77.0577 16.475 77.0577 14.2672C77.0577 12.5143 77.8934 12.3036 78.9379 12.0484L79.0076 12.0262C79.9328 11.8043 82.2707 11.7599 82.7581 11.7488V16.2309ZM102.058 8.53149V15.5431C102.088 17.2849 101.69 17.8396 100.138 18.239C99.4615 18.4054 98.4269 18.594 97.3027 18.594C95.6413 18.594 92.1892 18.5829 92.1892 14.3671C92.1793 11.0499 93.9302 10.473 96.0691 10.1069C97.4619 9.85172 98.8746 9.80734 99.5908 9.80734H99.9888V8.64244C99.9888 7.85474 99.9788 7.37769 99.3222 7.08923C98.9243 6.90063 98.3274 6.81188 97.432 6.81188C95.9597 6.81188 94.6465 7.18908 93.771 7.43316L93.4328 7.52191C93.3812 7.54048 93.3268 7.5471 93.2728 7.54137C93.2189 7.53564 93.1665 7.51768 93.119 7.4886C93.0715 7.45951 93.0298 7.41991 92.9965 7.37222C92.9633 7.32453 92.939 7.26976 92.9254 7.21127V7.18908L92.7264 6.06856V6.00199C92.7264 5.74682 92.8956 5.58041 93.0547 5.52494C93.7611 5.23649 95.6214 4.75943 97.6211 4.75943C99.0835 4.75943 100.138 4.98132 100.854 5.42509C102.068 6.14622 102.068 7.47753 102.058 8.54259V8.53149ZM100.009 11.7488C99.5113 11.7488 97.1833 11.8043 96.2581 12.0262L96.1785 12.0484C95.134 12.3036 94.3082 12.5143 94.2983 14.2672C94.2983 16.475 95.7906 16.6747 97.3226 16.6858V16.7857V16.6747C98.2334 16.6872 99.1402 16.5374 100.009 16.2309V11.7488ZM133.306 4.74834C128.501 4.74834 128.093 8.3318 128.093 11.6823C128.093 15.0217 128.501 18.5829 133.306 18.594C138.111 18.5829 138.519 15.0328 138.529 11.6823C138.529 8.17648 138.111 4.75943 133.306 4.74834ZM133.306 16.6303C130.391 16.6303 130.242 14.9218 130.222 11.6823C130.252 8.42055 130.391 6.72312 133.306 6.70093C136.221 6.72312 136.37 8.42055 136.39 11.6823C136.37 14.9218 136.221 16.6192 133.306 16.6303ZM124.681 18.0948L124.561 18.1392C123.885 18.3278 122.97 18.5829 121.348 18.5829C116.901 18.5829 116.026 16.0423 116.026 11.6601C116.026 6.62327 117.438 4.75943 121.219 4.74834C122.552 4.74834 123.477 4.94803 124.134 5.12554V1.07612C124.124 0.898613 124.193 0.665633 124.561 0.587972L125.745 0.244049H125.815C126.083 0.244049 126.183 0.521407 126.183 0.754387V15.9758C126.193 16.941 126.093 17.7619 124.691 18.0948H124.681ZM124.124 7.07814C123.726 6.9672 122.631 6.67874 121.388 6.67874C119.12 6.70093 118.155 7.39987 118.135 11.6823C118.165 16.3863 119.398 16.6414 121.418 16.6636V16.7635V16.6525C122.671 16.6525 123.746 16.3641 124.124 16.242V7.07814ZM113.519 18.2723H112.464C112.332 18.2723 112.206 18.2138 112.112 18.1098C112.019 18.0058 111.967 17.8647 111.967 17.7176V8.66462C111.947 7.1447 111.539 6.71203 110.076 6.68984C108.445 6.68984 106.774 7.1558 106.226 7.33331V17.6954C106.226 18.0282 106.027 18.2612 105.759 18.2612H104.674C104.543 18.2612 104.416 18.2028 104.323 18.0987C104.229 17.9947 104.177 17.8536 104.177 17.7065V7.57738C104.167 6.64546 104.237 6.00199 105.421 5.56931C106.545 5.12554 108.704 4.74834 110.126 4.74834C112.842 4.74834 114.006 5.85777 114.006 8.46493V17.7176C114.006 17.8647 113.954 18.0058 113.86 18.1098C113.767 18.2138 113.641 18.2723 113.509 18.2723H113.519ZM89.5827 18.5164C90.1995 18.5053 90.6472 18.3721 90.8163 18.1392C90.8462 18.1057 90.8695 18.0658 90.8849 18.0219C90.9003 17.9781 90.9074 17.9311 90.9059 17.884C90.9059 17.8063 90.9059 17.8063 90.7368 16.9188V16.8966C90.687 16.6747 90.5477 16.5638 90.4284 16.5638H90.11C89.6723 16.5527 89.3141 16.475 89.3141 15.765V0.754387C89.3141 0.510312 89.1749 0.244049 88.9162 0.244049H88.8466L87.6527 0.587972C87.4538 0.610161 87.2548 0.776576 87.2548 1.07612V15.8094C87.2548 17.5512 88.0905 18.5164 89.5827 18.5164ZM72.8694 18.2723H64.3934C64.2614 18.2723 64.1349 18.2138 64.0416 18.1098C63.9483 18.0058 63.8959 17.8647 63.8959 17.7176V16.5416C63.8959 16.2531 63.9755 16.12 64.1347 15.8981L70.8797 7.02267H64.264C64.1321 7.02267 64.0056 6.96422 63.9123 6.8602C63.819 6.75617 63.7666 6.61507 63.7666 6.46795V5.62479C63.7666 5.30305 63.9855 5.07007 64.264 5.07007H72.8296C73.1181 5.07007 73.327 5.31415 73.327 5.62479V6.82297C73.327 7.04486 73.2673 7.22237 73.1181 7.42206L66.3532 16.3197H72.8794C73.1579 16.3197 73.3768 16.5638 73.3768 16.8744V17.7176C73.3768 17.8647 73.3244 18.0058 73.2311 18.1098C73.1378 18.2138 73.0113 18.2723 72.8794 18.2723H72.8694Z" fill="#1D1D1B"/>
<path fill-rule="evenodd" clip-rule="evenodd" d="M44.5662 22C43.8399 22 43.442 21.8003 43.2331 21.6672C42.9346 21.4675 42.3875 20.9793 41.9 19.526C41.0363 16.7936 40.6087 13.9136 40.6365 11.0166V11.0055C40.6564 7.65507 41.124 4.80383 41.9 2.47403C42.4073 1.03177 42.9346 0.521432 43.2331 0.332829C43.442 0.188603 43.8399 0 44.5562 0C44.8348 0 45.1531 0.0332829 45.5312 0.0998487C47.7099 0.499244 50.1074 1.46445 52.694 3.1175C54.9351 4.54644 56.9295 6.40991 58.5835 8.62027C59.449 9.84065 59.5485 10.6172 59.5485 10.9945C59.5485 11.3828 59.449 12.1594 58.5835 13.3686C56.9296 15.5792 54.9352 17.4427 52.694 18.8714H52.6841C50.4824 20.3522 48.0593 21.3782 45.5312 21.9002C45.1531 21.9667 44.8348 21.9889 44.5662 21.9889" fill="#FF6900"/>
</svg>
